<?xml version="1.0" encoding="UTF-8"?>
<svg width="764px" height="321px" viewBox="0 0 764 321" version="1.1" xmlns="http://www.w3.org/2000/svg" xmlns:xlink="http://www.w3.org/1999/xlink">
    <!-- Generator: Sketch 45.2 (43514) - http://www.bohemiancoding.com/sketch -->
    <title>Page 1</title>
    <desc>Created with Sketch.</desc>
    <defs></defs>
    <g id="Page-1" stroke="none" stroke-width="1" fill="none" fill-rule="evenodd" opacity="0.5">
        <g id="Homepage" transform="translate(-29.000000, -4985.000000)">
            <g id="Mobil-Uygulama" transform="translate(0.000000, 4826.000000)">
                <g id="Page-1" transform="translate(400.000000, 306.500000) scale(-1, 1) translate(-400.000000, -306.500000) translate(0.000000, 135.000000)">
                    <polygon id="Stroke-2" stroke="#009B35" stroke-width="5" points="47.778 277.869 177.97 277.869 177.97 259.473 47.778 259.473"></polygon>
                    <polygon id="Stroke-3" stroke="#009B35" stroke-width="5" points="278.667 161.817 392 161.817 392 143.421 278.667 143.421"></polygon>
                    <g id="Group-10" transform="translate(57.000000, 277.238000)" stroke="#009B35" stroke-width="5">
                        <path d="M0.7778,0.6313 L0.7778,64.5003" id="Stroke-4"></path>
                        <path d="M110.9697,0.6313 L110.9697,64.5003" id="Stroke-6"></path>
                        <polyline id="Stroke-8" points="99.0825 64.5 99.0825 12.66 72.8555 12.66 72.8555 64.5"></polyline>
                    </g>
                    <polyline id="Stroke-11" stroke="#009B35" stroke-width="5" points="106.3638 307.8298 106.3638 329.1128 73.8178 329.1128 73.8178 307.8298"></polyline>
                    <polygon id="Stroke-12" stroke="#009B35" stroke-width="5" points="151.082 259.473 163.818 259.473 163.818 237.019 151.082 237.019"></polygon>
                    <g id="Group-101" transform="translate(9.000000, 27.238000)">
                        <path d="M87.6792,262.6596 L87.6792,274.8196 C87.6792,278.4586 84.7292,281.4086 81.0912,281.4086 C77.4522,281.4086 74.5022,278.4586 74.5022,274.8196 L74.5022,262.6596 L87.6792,262.6596 Z" id="Stroke-13" stroke="#009B35" stroke-width="5"></path>
                        <path d="M142.4141,297.0102 C142.4141,298.6332 141.0971,299.9492 139.4731,299.9492 C137.8501,299.9492 136.5331,298.6332 136.5331,297.0102 C136.5331,295.3852 137.8501,294.0702 139.4731,294.0702 C141.0971,294.0702 142.4141,295.3852 142.4141,297.0102" id="Fill-15" fill="#009B35"></path>
                        <polyline id="Stroke-17" stroke="#009B35" stroke-width="5" points="358.3335 288.2397 358.3335 236.3997 332.1065 236.3997 332.1065 288.2397"></polyline>
                        <path d="M353.665,270.75 C353.665,272.373 352.348,273.688 350.724,273.688 C349.101,273.688 347.784,272.373 347.784,270.75 C347.784,269.125 349.101,267.81 350.724,267.81 C352.348,267.81 353.665,269.125 353.665,270.75" id="Fill-19" fill="#009B35"></path>
                        <path d="M241.1646,231.2143 C241.1646,244.8403 230.1186,255.8873 216.4916,255.8873 C202.8646,255.8873 191.8176,244.8403 191.8176,231.2143 C191.8176,217.5873 202.8646,206.5403 216.4916,206.5403 C230.1186,206.5403 241.1646,217.5873 241.1646,231.2143 Z" id="Stroke-21" stroke="#009B35" stroke-width="5"></path>
                        <path d="M262.5264,259.3965 C262.5264,265.2615 257.7714,270.0165 251.9054,270.0165 C246.0394,270.0165 241.2854,265.2615 241.2854,259.3965 C241.2854,253.5295 246.0394,248.7745 251.9054,248.7745 C257.7714,248.7745 262.5264,253.5295 262.5264,259.3965 Z" id="Stroke-23" stroke="#009B35" stroke-width="5"></path>
                        <path d="M216.4912,231.2138 C227.9832,246.4788 234.1982,265.0678 234.1982,284.1748 L234.1982,314.4998" id="Stroke-25" stroke="#009B35" stroke-width="5" stroke-linecap="round"></path>
                        <path d="M251.9053,259.396 C240.4133,274.661 234.1983,293.25 234.1983,312.357" id="Stroke-27" stroke="#009B35" stroke-width="5" stroke-linecap="round"></path>
                        <path d="M181.5005,314.5 L181.5005,284.857 C181.5005,278.229 186.8735,272.857 193.5005,272.857 C200.1275,272.857 205.5005,278.229 205.5005,284.857 L205.5005,314.5" id="Stroke-29" stroke="#009B35" stroke-width="5"></path>
                        <path d="M181.5005,306.875 L205.5005,306.875" id="Stroke-31" stroke="#009B35" stroke-width="5"></path>
                        <path d="M187.9453,291.7446 L199.0553,291.7446" id="Stroke-33" stroke="#009B35" stroke-width="5"></path>
                        <polyline id="Stroke-35" stroke="#009B35" stroke-width="5" points="279.6665 314.5 279.6665 134.579 372.9995 134.579 372.9995 314.5"></polyline>
                        <polyline id="Stroke-37" stroke="#009B35" stroke-width="5" points="332.1064 295.5615 332.1064 288.2395 358.3334 288.2395 358.3334 295.5615"></polyline>
                        <polyline id="Stroke-39" stroke="#009B35" stroke-width="5" points="329.1064 304.8833 329.1064 297.5613 361.3334 297.5613 361.3334 304.8833"></polyline>
                        <polygon id="Stroke-41" stroke="#009B35" stroke-width="5" points="294 267.81 320.106 267.81 320.106 236.4 294 236.4"></polygon>
                        <polygon id="Stroke-43" stroke="#009B35" stroke-width="5" points="294 223.399 320.106 223.399 320.106 191.989 294 191.989"></polygon>
                        <polygon id="Stroke-44" stroke="#009B35" stroke-width="5" points="332.227 223.399 358.333 223.399 358.333 191.989 332.227 191.989"></polygon>
                        <polygon id="Stroke-45" stroke="#009B35" stroke-width="5" points="294 178.989 320.106 178.989 320.106 147.579 294 147.579"></polygon>
                        <polygon id="Stroke-46" stroke="#009B35" stroke-width="5" points="332.227 178.989 358.333 178.989 358.333 147.579 332.227 147.579"></polygon>
                        <polyline id="Stroke-47" stroke="#009B35" stroke-width="5" points="671 314.5 671 262.66 644.773 262.66 644.773 314.5"></polyline>
                        <path d="M666.332,297.0102 C666.332,298.6332 665.014,299.9492 663.391,299.9492 C661.768,299.9492 660.451,298.6332 660.451,297.0102 C660.451,295.3852 661.768,294.0702 663.391,294.0702 C665.014,294.0702 666.332,295.3852 666.332,297.0102" id="Fill-48" fill="#009B35"></path>
                        <polygon id="Stroke-49" stroke="#009B35" stroke-width="5" points="683 294.07 709.106 294.07 709.106 262.66 683 262.66"></polygon>
                        <polygon id="Stroke-50" stroke="#009B35" stroke-width="5" points="721.106 294.07 747.213 294.07 747.213 262.66 721.106 262.66"></polygon>
                        <path d="M759,314.5 L759,229.867 C759,222.629 753.133,216.762 745.894,216.762 L723.519,216.762 L723.519,202.989 L710.992,202.989 C710.992,194.434 704.055,187.498 695.5,187.498 C686.945,187.498 680.008,194.434 680.008,202.989 L667.481,202.989 L667.481,216.762 L645.105,216.762 C637.867,216.762 632,222.629 632,229.867 L632,314.5" id="Stroke-51" stroke="#009B35" stroke-width="5"></path>
                        <path d="M644.9131,242.7969 C644.9131,244.7229 643.3501,246.2839 641.4221,246.2839 C639.4961,246.2839 637.9341,244.7229 637.9341,242.7969 C637.9341,240.8689 639.4961,239.3079 641.4221,239.3079 C643.3501,239.3079 644.9131,240.8689 644.9131,242.7969" id="Fill-52" fill="#009B35"></path>
                        <path d="M671.7441,242.7969 C671.7441,244.7229 670.1801,246.2839 668.2531,246.2839 C666.3271,246.2839 664.7651,244.7229 664.7651,242.7969 C664.7651,240.8689 666.3271,239.3079 668.2531,239.3079 C670.1801,239.3079 671.7441,240.8689 671.7441,242.7969" id="Fill-53" fill="#009B35"></path>
                        <path d="M698.5742,242.7969 C698.5742,244.7229 697.0112,246.2839 695.0832,246.2839 C693.1572,246.2839 691.5952,244.7229 691.5952,242.7969 C691.5952,240.8689 693.1572,239.3079 695.0832,239.3079 C697.0112,239.3079 698.5742,240.8689 698.5742,242.7969" id="Fill-54" fill="#009B35"></path>
                        <path d="M725.4043,242.7969 C725.4043,244.7229 723.8423,246.2839 721.9143,246.2839 C719.9873,246.2839 718.4253,244.7229 718.4253,242.7969 C718.4253,240.8689 719.9873,239.3079 721.9143,239.3079 C723.8423,239.3079 725.4043,240.8689 725.4043,242.7969" id="Fill-55" fill="#009B35"></path>
                        <path d="M752.2354,242.7969 C752.2354,244.7229 750.6724,246.2839 748.7454,246.2839 C746.8184,246.2839 745.2564,244.7229 745.2564,242.7969 C745.2564,240.8689 746.8184,239.3079 748.7454,239.3079 C750.6724,239.3079 752.2354,240.8689 752.2354,242.7969" id="Fill-56" fill="#009B35"></path>
                        <path d="M632,251.2368 L758.98,251.2368" id="Stroke-57" stroke="#009B35" stroke-width="5"></path>
                        <path d="M758.9805,234.0835 L632.0005,234.0835" id="Stroke-58" stroke="#009B35" stroke-width="5"></path>
                        <path d="M690.6377,202.9892 C690.6377,205.6742 692.8167,207.8512 695.4997,207.8512 C698.1837,207.8512 700.3607,205.6742 700.3607,202.9892 C700.3607,200.3042 698.1837,198.1282 695.4997,198.1282 C692.8167,198.1282 690.6377,200.3042 690.6377,202.9892 Z" id="Stroke-59" stroke="#009B35" stroke-width="5"></path>
                        <polyline id="Stroke-60" stroke="#009B35" stroke-width="5" points="373.9736 166.8139 421.1266 122.4479 468.2816 166.8139 468.2816 314.4999"></polyline>
                        <polygon id="Stroke-61" stroke="#009B35" stroke-width="4.868" points="384.627 208.488 400.744 208.488 400.744 178.371 384.627 178.371"></polygon>
                        <polygon id="Stroke-62" stroke="#009B35" stroke-width="4.868" points="413.068 208.488 429.185 208.488 429.185 178.371 413.068 178.371"></polygon>
                        <polygon id="Stroke-63" stroke="#009B35" stroke-width="4.868" points="441.51 208.488 457.627 208.488 457.627 178.371 441.51 178.371"></polygon>
                        <polygon id="Stroke-64" stroke="#009B35" stroke-width="4.868" points="384.627 250.605 400.744 250.605 400.744 220.488 384.627 220.488"></polygon>
                        <polygon id="Stroke-65" stroke="#009B35" stroke-width="4.868" points="413.068 250.605 429.185 250.605 429.185 220.488 413.068 220.488"></polygon>
                        <polygon id="Stroke-66" stroke="#009B35" stroke-width="4.868" points="441.51 250.605 457.627 250.605 457.627 220.488 441.51 220.488"></polygon>
                        <polygon id="Stroke-67" stroke="#009B35" stroke-width="4.868" points="384.627 282.723 397.744 282.723 397.744 262.606 384.627 262.606"></polygon>
                        <polygon id="Stroke-68" stroke="#009B35" stroke-width="4.868" points="444.51 282.723 457.627 282.723 457.627 262.606 444.51 262.606"></polygon>
                        <polyline id="Stroke-69" stroke="#009B35" stroke-width="5" points="434.2412 314.4365 434.2412 262.5965 408.0132 262.5965 408.0132 314.4365"></polyline>
                        <path d="M429.5713,296.9482 C429.5713,298.5712 428.2553,299.8862 426.6303,299.8862 C425.0063,299.8862 423.6903,298.5712 423.6903,296.9482 C423.6903,295.3232 425.0063,294.0072 426.6303,294.0072 C428.2553,294.0072 429.5713,295.3232 429.5713,296.9482" id="Fill-70" fill="#009B35"></path>
                        <polyline id="Stroke-71" stroke="#009B35" stroke-width="5" points="569.5371 314.4365 569.5371 262.5965 543.3081 262.5965 543.3081 314.4365"></polyline>
                        <path d="M564.8672,296.9482 C564.8672,298.5712 563.5512,299.8862 561.9262,299.8862 C560.3022,299.8862 558.9862,298.5712 558.9862,296.9482 C558.9862,295.3232 560.3022,294.0072 561.9262,294.0072 C563.5512,294.0072 564.8672,295.3232 564.8672,296.9482" id="Fill-72" fill="#009B35"></path>
                        <polyline id="Stroke-73" stroke="#009B35" stroke-width="5" points="532.2813 314.4365 532.2813 160.2925 615.0003 160.2925 615.0003 314.4365"></polyline>
                        <polygon id="Stroke-74" stroke="#009B35" stroke-width="5" points="543.308 183.268 569.537 183.268 569.537 171.6 543.308 171.6"></polygon>
                        <polygon id="Stroke-75" stroke="#009B35" stroke-width="5" points="543.308 205.936 569.537 205.936 569.537 194.268 543.308 194.268"></polygon>
                        <polygon id="Stroke-76" stroke="#009B35" stroke-width="5" points="543.308 228.604 569.537 228.604 569.537 216.936 543.308 216.936"></polygon>
                        <polygon id="Stroke-77" stroke="#009B35" stroke-width="5" points="543.308 251.271 569.537 251.271 569.537 239.603 543.308 239.603"></polygon>
                        <polygon id="Stroke-78" stroke="#009B35" stroke-width="5" points="578.577 183.268 604.806 183.268 604.806 171.6 578.577 171.6"></polygon>
                        <polygon id="Stroke-79" stroke="#009B35" stroke-width="5" points="578.577 205.936 604.806 205.936 604.806 194.268 578.577 194.268"></polygon>
                        <polygon id="Stroke-80" stroke="#009B35" stroke-width="5" points="578.577 228.604 604.806 228.604 604.806 216.936 578.577 216.936"></polygon>
                        <polygon id="Stroke-81" stroke="#009B35" stroke-width="5" points="578.577 251.271 604.806 251.271 604.806 239.603 578.577 239.603"></polygon>
                        <polygon id="Stroke-82" stroke="#009B35" stroke-width="5" points="578.577 273.939 604.806 273.939 604.806 262.271 578.577 262.271"></polygon>
                        <polygon id="Stroke-83" stroke="#009B35" stroke-width="5" points="578.577 296.607 604.806 296.607 604.806 284.939 578.577 284.939"></polygon>
                        <path d="M498.7373,254.457 C497.3583,261.113 491.4953,265.887 484.6973,265.887" id="Stroke-84" stroke="#009B35" stroke-width="5" stroke-linecap="round"></path>
                        <path d="M498.7373,254.457 C500.1163,261.113 505.9793,265.887 512.7773,265.887" id="Stroke-85" stroke="#009B35" stroke-width="5" stroke-linecap="round"></path>
                        <path d="M498.7373,265.2036 C496.9023,274.0636 489.0973,280.4166 480.0493,280.4166" id="Stroke-86" stroke="#009B35" stroke-width="5" stroke-linecap="round"></path>
                        <path d="M498.7373,265.2036 C500.5723,274.0636 508.3773,280.4166 517.4253,280.4166" id="Stroke-87" stroke="#009B35" stroke-width="5" stroke-linecap="round"></path>
                        <path d="M498.7373,277.3525 C496.5163,288.0735 487.0733,295.7605 476.1243,295.7605" id="Stroke-88" stroke="#009B35" stroke-width="5" stroke-linecap="round"></path>
                        <path d="M498.7373,277.3525 C500.9583,288.0735 510.4013,295.7605 521.3493,295.7605" id="Stroke-89" stroke="#009B35" stroke-width="5" stroke-linecap="round"></path>
                        <path d="M498.7373,253.457 L498.7373,314.5" id="Stroke-90" stroke="#009B35" stroke-width="5"></path>
                        <path d="M14.1519,297.9917 C-10.7191,297.9917 5.0199,262.0997 14.1519,262.0997 C23.1859,262.0997 39.2999,297.9917 14.1519,297.9917 Z" id="Stroke-91" stroke="#009B35" stroke-width="5"></path>
                        <path d="M14.1982,280.0459 L14.1982,314.4999" id="Stroke-92" stroke="#009B35" stroke-width="5" stroke-linecap="round"></path>
                        <path d="M597.1982,10.0683 C596.5212,10.0683 595.8602,10.1373 595.2142,10.2363 C592.3622,4.2313 586.2562,0.0713 579.1652,0.0713 C571.9902,0.0713 565.8242,4.3303 563.0192,10.4543 C562.0362,10.2123 561.0132,10.0683 559.9582,10.0683 C553.6092,10.0683 548.3512,14.7203 547.3782,20.7103 L609.7752,20.7103 C608.7772,14.8803 603.7492,10.0683 597.1982,10.0683 Z" id="Stroke-93" stroke="#009B35" stroke-width="5"></path>
                        <path d="M649.1328,88.4638 C651.8448,81.5168 658.6368,76.9888 666.1128,77.1638 C668.2438,65.5378 678.4328,56.9498 690.3948,56.9498 C691.9948,56.9498 693.5638,57.1088 695.0968,57.4058 C701.9508,58.7388 707.9968,62.9328 711.6278,69.0458 C716.9868,70.1838 721.3088,74.0788 723.0148,79.2588 C735.0118,79.8728 744.4118,89.6228 744.9178,101.2038 L627.3038,101.2038 C630.1068,92.1558 639.4878,86.3428 649.1328,88.4638 Z" id="Stroke-94" stroke="#009B35" stroke-width="5"></path>
                        <path d="M177.2393,74.7807 C175.6773,69.4867 171.4303,65.4147 166.0523,64.0927 C161.7953,56.3927 153.7853,51.4747 144.9683,51.2017 C132.8753,50.8237 122.3053,59.1827 119.7843,70.8667 C112.2363,70.4517 105.2233,74.8177 102.2653,81.7577 C91.5233,79.0417 80.9843,86.1457 79.0463,96.5857 L198.6643,96.5857 C197.9403,85.2957 188.9963,75.7427 177.2393,74.7807 Z" id="Stroke-95" stroke="#009B35" stroke-width="5"></path>
                        <path d="M296.6704,61.8838 C295.6194,61.7638 294.5834,61.7498 293.5594,61.7968 C290.1784,51.9498 281.4274,44.4028 270.4014,43.1528 C259.2444,41.8868 248.9024,47.4298 243.4574,56.4588 C241.9764,55.9078 240.4074,55.5038 238.7604,55.3168 C228.3674,54.1398 219.0844,61.1388 216.9814,70.9268 L311.1984,70.9268 C308.0664,66.0618 302.8694,62.5868 296.6704,61.8838 Z" id="Stroke-96" stroke="#009B35" stroke-width="5"></path>
                        <polyline id="Stroke-97" stroke="#009B35" stroke-width="5" points="326.1064 314.5 326.1064 306.883 364.3334 306.883 364.3334 314.5"></polyline>
                        <path d="M434.8398,154.8818 C434.8398,162.4558 428.6998,168.5958 421.1268,168.5958 C413.5538,168.5958 407.4128,162.4558 407.4128,154.8818 C407.4128,147.3088 413.5538,141.1678 421.1268,141.1678 C428.6998,141.1678 434.8398,147.3088 434.8398,154.8818 Z" id="Stroke-98" stroke="#009B35" stroke-width="5"></path>
                        <polyline id="Stroke-99" stroke="#009B35" stroke-width="5" stroke-linecap="round" points="421.127 149.5791 421.127 155.6861 425.03 159.5901"></polyline>
                        <path d="M74.5024,262.6596 L74.5024,274.8206 C74.5024,278.4586 71.5524,281.4086 67.9144,281.4086 C64.2754,281.4086 61.3264,278.4586 61.3264,274.8206 L61.3264,262.6596 L100.8554,262.6596 L100.8554,274.8206 C100.8554,278.4586 97.9054,281.4086 94.2674,281.4086 C90.6284,281.4086 87.6794,278.4586 87.6794,274.8206 L87.6794,262.6596" id="Stroke-100" stroke="#009B35" stroke-width="5"></path>
                    </g>
                </g>
            </g>
        </g>
    </g>
</svg>