<?xml version="1.0" encoding="UTF-8"?>
<svg width="100px" height="100px" viewBox="0 0 100 100" version="1.1" xmlns="http://www.w3.org/2000/svg" xmlns:xlink="http://www.w3.org/1999/xlink">
    <!-- Generator: Sketch 46.2 (44496) - http://www.bohemiancoding.com/sketch -->
    <title>hiw-icon-4</title>
    <desc>Created with Sketch.</desc>
    <defs></defs>
    <g id="Page-1" stroke="none" stroke-width="1" fill="none" fill-rule="evenodd">
        <g id="hiw-icon-4" fill="#00BA40">
            <g id="Group-2" transform="translate(15.000000, 15.000000)">
                <path d="M58.0006757,39.1389865 C58.2962838,39.4379054 58.6992568,39.6062838 59.1197297,39.6062838 L63.1177703,39.6062838 C65.0158108,39.6062838 66.5600676,41.1505405 66.5600676,43.0485811 C66.5600676,44.9466216 65.0158108,46.4904054 63.1177703,46.4908784 L62.6708108,46.4904054 L59.1197297,46.4908784 C58.2575,46.4908784 57.5556081,47.1998649 57.5461486,48.0620946 C57.5414189,48.4825676 57.7050676,48.8874324 58.0006757,49.1863514 C58.2962838,49.4852703 58.6992568,49.6531757 59.1197297,49.6531757 L63.1177703,49.6531757 C65.0158108,49.6531757 66.5600676,51.1974324 66.5600676,53.095473 C66.5600676,54.8667568 65.2144595,56.3301351 63.4918919,56.5174324 C63.367973,56.5103378 63.2431081,56.507027 63.1177703,56.507027 L59.1197297,56.507027 C58.2504054,56.507027 57.5461486,57.242027 57.5461486,58.1113514 C57.5461486,58.9802027 58.2504054,59.6849324 59.1197297,59.6849324 L63.1177703,59.6849324 C63.2431081,59.6849324 63.367973,59.6811486 63.4918919,59.674527 C65.2144595,59.8618243 66.5600676,61.3252027 66.5600676,63.0964865 C66.5600676,64.994527 65.0158108,66.5387838 63.1177703,66.5387838 C62.8973649,66.5387838 47.8312838,66.4867568 41.6580405,66.5378378 C38.1315541,66.5733108 36.4420946,65.0427703 34.6542568,63.4285135 C33.075,62.0025 31.2847973,60.3863514 28.3518919,60.3248649 L23.6722973,60.3248649 L23.6722973,33.6288514 L26.4481757,33.6288514 C26.4491216,33.6288514 26.4491216,33.6288514 26.4500676,33.6288514 C32.4530405,33.6288514 33.5933784,31.4337838 34.6466892,28.0856081 C34.9990541,26.9646622 35.3982432,25.6942568 36.207973,24.3231081 C40.2225676,17.5222297 40.1956081,14.8617568 40.0953378,4.96337838 C40.0953378,4.96337838 40.0891892,3.34391892 40.0962838,3.27202703 C43.9997297,3.60263514 47.075,6.89027027 47.075,10.8840541 L47.075473,27.9858108 C47.075473,28.8546622 47.7797297,29.5593919 48.6490541,29.5593919 L63.1177703,29.5593919 C65.0158108,29.5593919 66.5600676,31.1036486 66.5600676,33.0016892 C66.5600676,34.8997297 65.0158108,36.4435135 63.1177703,36.4435135 L59.1197297,36.4435135 C58.2575,36.4435135 57.5556081,37.152973 57.5461486,38.0152027 C57.5414189,38.4352027 57.7050676,38.8400676 58.0006757,39.1389865 Z M20.5251351,66.5387838 L3.26587838,66.5387838 L3.26587838,27.2668919 L10.3216892,27.2668919 L10.3216892,49.9303378 C10.3216892,50.7991892 11.0264189,51.5039189 11.8952703,51.5039189 C12.7645946,51.5039189 13.4688514,50.7991892 13.4688514,49.9303378 L13.4688514,27.2668919 L20.5251351,27.2668919 L20.5251351,66.5387838 Z M69.7072297,43.0485811 C69.7072297,41.037973 68.8019595,39.234527 67.3773649,38.0251351 C68.8019595,36.8152703 69.7072297,35.0122973 69.7072297,33.0016892 C69.7072297,29.3678378 66.7511486,26.4122297 63.1177703,26.4122297 L50.2226351,26.4122297 L50.2221622,10.8840541 C50.2221622,4.94445946 45.4025676,0.111148649 39.4724324,0.0974324324 C38.937973,0.0917567568 38.3727703,0.311216216 37.9428378,0.707567568 C37.2986486,1.30114865 36.9590541,2.23527027 36.9339865,3.48439189 C36.9335135,3.5 36.9481757,4.99554054 36.9481757,4.99554054 C37.0460811,14.665 37.0664189,16.6775 33.4978378,22.7230405 C32.5045946,24.4054054 32.0273649,25.9222297 31.6442568,27.1410811 C30.8368919,29.7069595 30.5942568,30.4816892 26.4505405,30.4816892 C26.4500676,30.4816892 26.4486486,30.4816892 26.4481757,30.4816892 L23.6722973,30.4816892 L23.6722973,25.6928378 C23.6722973,24.8239865 22.9675676,24.1192568 22.0987162,24.1192568 L1.6922973,24.1192568 C0.822972973,24.1192568 0.118716216,24.8239865 0.118716216,25.6928378 L0.118716216,68.1123649 C0.118716216,68.9812162 0.822972973,69.6859459 1.6922973,69.6859459 L22.0987162,69.6859459 C22.9675676,69.6859459 23.6722973,68.9812162 23.6722973,68.1123649 L23.6722973,63.472027 L28.3187838,63.4715541 C30.0460811,63.5084459 31.0941892,64.4543919 32.5452703,65.764527 C34.4991216,67.5287162 36.9145946,69.720473 41.6840541,69.685473 C47.8388514,69.6343919 62.8959459,69.6859459 63.1177703,69.6859459 C66.7511486,69.6859459 69.7072297,66.7298649 69.7072297,63.0964865 C69.7072297,61.0986486 68.8133108,59.3051351 67.4043243,58.0957432 C68.8133108,56.8863514 69.7072297,55.0933108 69.7072297,53.095473 C69.7072297,51.0848649 68.8019595,49.2814189 67.3773649,48.072027 C68.8019595,46.8621622 69.7072297,45.0591892 69.7072297,43.0485811 L69.7072297,43.0485811 Z" id="Fill-22"></path>
                <path d="M11.8952703,56.5377703 C10.6418919,56.5377703 9.62216216,57.5575 9.62216216,58.8108784 C9.62216216,60.0637838 10.6418919,61.0835135 11.8952703,61.0835135 C13.1486486,61.0835135 14.1683784,60.0637838 14.1683784,58.8108784 C14.1683784,57.5575 13.1486486,56.5377703 11.8952703,56.5377703" id="Fill-23"></path>
            </g>
        </g>
    </g>
</svg>