<?xml version="1.0" encoding="UTF-8"?>
<svg width="100px" height="100px" viewBox="0 0 100 100" version="1.1" xmlns="http://www.w3.org/2000/svg" xmlns:xlink="http://www.w3.org/1999/xlink">
    <!-- Generator: Sketch 46.2 (44496) - http://www.bohemiancoding.com/sketch -->
    <title>hiw-icon-2</title>
    <desc>Created with Sketch.</desc>
    <defs></defs>
    <g id="Page-1" stroke="none" stroke-width="1" fill="none" fill-rule="evenodd">
        <g id="hiw-icon-2" fill="#00BA40">
            <g id="Group" transform="translate(10.000000, 18.000000)">
                <path d="M3.21538462,48.4641026 L62.1605128,48.4641026 L62.1605128,17.7410256 L3.21538462,17.7410256 L3.21538462,48.4641026 Z M63.7682051,51.6789744 L1.60769231,51.6789744 C0.719487179,51.6789744 0,50.9594872 0,50.0712821 L0,16.1333333 C0,15.2451282 0.719487179,14.525641 1.60769231,14.525641 L63.7682051,14.525641 C64.6564103,14.525641 65.3758974,15.2451282 65.3758974,16.1333333 L65.3758974,50.0712821 C65.3758974,50.9594872 64.6564103,51.6789744 63.7682051,51.6789744 L63.7682051,51.6789744 Z" id="Fill-23"></path>
                <path d="M70.9133333,44.534359 C70.0251282,44.534359 69.305641,43.814359 69.305641,42.9266667 L69.305641,10.5958974 L8.75230769,10.5958974 C7.86461538,10.5958974 7.14512821,9.87641026 7.14512821,8.98820513 C7.14512821,8.10051282 7.86461538,7.38051282 8.75230769,7.38051282 L70.9133333,7.38051282 C71.8010256,7.38051282 72.5210256,8.10051282 72.5210256,8.98820513 L72.5210256,42.9266667 C72.5210256,43.814359 71.8010256,44.534359 70.9133333,44.534359" id="Fill-24"></path>
                <path d="M78.0579487,37.3892308 C77.1702564,37.3892308 76.4502564,36.6697436 76.4502564,35.7815385 L76.4502564,3.45076923 L15.8974359,3.45076923 C15.0097436,3.45076923 14.2897436,2.73128205 14.2897436,1.84358974 C14.2897436,0.955384615 15.0097436,0.235897436 15.8974359,0.235897436 L78.0579487,0.235897436 C78.9461538,0.235897436 79.665641,0.955384615 79.665641,1.84358974 L79.665641,35.7815385 C79.665641,36.6697436 78.9461538,37.3892308 78.0579487,37.3892308" id="Fill-25"></path>
                <path d="M32.6876923,24.885641 C29.1620513,24.885641 26.2933333,28.5717949 26.2933333,33.1025641 C26.2933333,37.6328205 29.1620513,41.3189744 32.6876923,41.3189744 C36.2138462,41.3189744 39.0825641,37.6328205 39.0825641,33.1025641 C39.0825641,28.5717949 36.2138462,24.885641 32.6876923,24.885641 Z M32.6876923,44.534359 C27.3887179,44.534359 23.0779487,39.4061538 23.0779487,33.1025641 C23.0779487,26.7989744 27.3887179,21.6707692 32.6876923,21.6707692 C37.9871795,21.6707692 42.2979487,26.7989744 42.2979487,33.1025641 C42.2979487,39.4061538 37.9871795,44.534359 32.6876923,44.534359 L32.6876923,44.534359 Z" id="Fill-26"></path>
                <path d="M20.3492308,44.534359 L12.9805128,44.534359 C12.0923077,44.534359 11.3728205,43.814359 11.3728205,42.9266667 C11.3728205,41.4815385 10.1974359,40.3066667 8.75230769,40.3066667 C7.86461538,40.3066667 7.14512821,39.5866667 7.14512821,38.6989744 L7.14512821,27.5061538 C7.14512821,26.6179487 7.86461538,25.8984615 8.75230769,25.8984615 C10.1974359,25.8984615 11.3728205,24.7230769 11.3728205,23.2779487 C11.3728205,22.3902564 12.0923077,21.6707692 12.9805128,21.6707692 L20.3492308,21.6707692 C21.2369231,21.6707692 21.9564103,22.3902564 21.9564103,23.2779487 C21.9564103,24.1661538 21.2369231,24.885641 20.3492308,24.885641 L14.3625641,24.885641 C13.8097436,26.8133333 12.2876923,28.3353846 10.36,28.8882051 L10.36,37.3164103 C12.2876923,37.8697436 13.8097436,39.3917949 14.3625641,41.3189744 L20.3492308,41.3189744 C21.2369231,41.3189744 21.9564103,42.0389744 21.9564103,42.9266667 C21.9564103,43.814359 21.2369231,44.534359 20.3492308,44.534359" id="Fill-27"></path>
                <path d="M52.3953846,44.534359 L45.0266667,44.534359 C44.1389744,44.534359 43.4194872,43.814359 43.4194872,42.9266667 C43.4194872,42.0389744 44.1389744,41.3189744 45.0266667,41.3189744 L51.0133333,41.3189744 C51.5661538,39.3917949 53.0882051,37.8697436 55.0158974,37.3164103 L55.0158974,28.8882051 C53.0882051,28.3353846 51.5661538,26.8133333 51.0133333,24.885641 L45.0266667,24.885641 C44.1389744,24.885641 43.4194872,24.1661538 43.4194872,23.2779487 C43.4194872,22.3902564 44.1389744,21.6707692 45.0266667,21.6707692 L52.3953846,21.6707692 C53.2835897,21.6707692 54.0030769,22.3902564 54.0030769,23.2779487 C54.0030769,24.7230769 55.1784615,25.8984615 56.6235897,25.8984615 C57.5112821,25.8984615 58.2307692,26.6179487 58.2307692,27.5061538 L58.2307692,38.6989744 C58.2307692,39.5866667 57.5112821,40.3066667 56.6235897,40.3066667 C55.1784615,40.3066667 54.0030769,41.4815385 54.0030769,42.9266667 C54.0030769,43.814359 53.2835897,44.534359 52.3953846,44.534359" id="Fill-28"></path>
                <path d="M23.8610256,63.1107692 C22.5805128,63.1107692 21.5389744,62.0692308 21.5389744,60.7887179 C21.5389744,59.5087179 22.5805128,58.4666667 23.8610256,58.4666667 C25.1415385,58.4666667 26.1830769,59.5087179 26.1830769,60.7887179 C26.1830769,62.0692308 25.1415385,63.1107692 23.8610256,63.1107692" id="Fill-29"></path>
                <path d="M32.6876923,63.1107692 C31.4076923,63.1107692 30.365641,62.0692308 30.365641,60.7887179 C30.365641,59.5087179 31.4076923,58.4666667 32.6876923,58.4666667 C33.9682051,58.4666667 35.0102564,59.5087179 35.0102564,60.7887179 C35.0102564,62.0692308 33.9682051,63.1107692 32.6876923,63.1107692" id="Fill-30"></path>
                <path d="M41.5148718,63.1107692 C40.2348718,63.1107692 39.1928205,62.0692308 39.1928205,60.7887179 C39.1928205,59.5087179 40.2348718,58.4666667 41.5148718,58.4666667 C42.7953846,58.4666667 43.8374359,59.5087179 43.8374359,60.7887179 C43.8374359,62.0692308 42.7953846,63.1107692 41.5148718,63.1107692" id="Fill-31"></path>
            </g>
        </g>
    </g>
</svg>