<?xml version="1.0" encoding="UTF-8"?>
<svg width="100px" height="100px" viewBox="0 0 100 100" version="1.1" xmlns="http://www.w3.org/2000/svg" xmlns:xlink="http://www.w3.org/1999/xlink">
    <!-- Generator: Sketch 46.2 (44496) - http://www.bohemiancoding.com/sketch -->
    <title>hiw-icon-3</title>
    <desc>Created with Sketch.</desc>
    <defs></defs>
    <g id="Page-1" stroke="none" stroke-width="1" fill="none" fill-rule="evenodd">
        <g id="hiw-icon-3" fill="#00BA40">
            <g id="Group" transform="translate(15.000000, 15.000000)">
                <path d="M49.069527,18.077027 C49.069527,17.2067568 48.3647973,16.5067568 47.4959459,16.5067568 L21.1083108,16.5067568 C20.2394595,16.5067568 19.5347297,17.2067568 19.5347297,18.077027 C19.5347297,18.9472973 20.2394595,19.652027 21.1083108,19.652027 L47.4959459,19.652027 C48.3647973,19.652027 49.069527,18.9472973 49.069527,18.077027" id="Fill-99"></path>
                <path d="M40.3270946,26.4722973 C40.3270946,25.602027 39.6228378,24.8972973 38.7535135,24.8972973 L21.1083108,24.8972973 C20.2394595,24.8972973 19.5347297,25.602027 19.5347297,26.4722973 C19.5347297,27.3378378 20.2394595,28.0425676 21.1083108,28.0425676 L38.7535135,28.0425676 C39.6228378,28.0425676 40.3270946,27.3378378 40.3270946,26.4722973" id="Fill-100"></path>
                <path d="M21.1083108,33.2878378 C20.2394595,33.2878378 19.5347297,33.9925676 19.5347297,34.8628378 C19.5347297,35.7331081 20.2394595,36.4378378 21.1083108,36.4378378 L30.0115541,36.4378378 C30.8804054,36.4378378 31.5851351,35.7331081 31.5851351,34.8628378 C31.5851351,33.9925676 30.8804054,33.2878378 30.0115541,33.2878378 L21.1083108,33.2878378" id="Fill-101"></path>
                <path d="M66.7705405,64.5135135 C66.7705405,65.7763514 65.7413514,66.8074324 64.4756757,66.8074324 L52.7719595,66.8074324 C51.5062838,66.8074324 50.4766216,65.7763514 50.4766216,64.5135135 L50.4766216,59.9777027 L66.7705405,59.9777027 L66.7705405,64.5135135 Z M56.2975,25.1952703 C56.9951351,25.602027 57.7939865,25.8290541 58.6235811,25.8290541 C59.4536486,25.8290541 60.2525,25.602027 60.9501351,25.1952703 L66.0582432,29.4425676 C61.7641216,33.0182432 55.4835135,33.0182432 51.1889189,29.4425676 L56.2975,25.1952703 Z M50.4766216,32.8337838 C52.4418243,34.1391892 54.6846622,34.9432432 57.05,35.1939189 L57.05,44.7905405 C57.05,45.6560811 57.7547297,46.3608108 58.6235811,46.3608108 C59.4929054,46.3608108 60.1971622,45.6560811 60.1971622,44.7905405 L60.1971622,35.1939189 C62.562973,34.9432432 64.8058108,34.1391892 66.7705405,32.8337838 L66.7705405,56.8277027 L50.4766216,56.8277027 L50.4766216,32.8337838 Z M69.3506081,28.0851351 L59.6295946,20.0067568 C59.0468919,19.5195946 58.2007432,19.5195946 57.6175676,20.0067568 L47.897027,28.0851351 C47.5375676,28.3878378 47.3294595,28.8277027 47.3294595,29.2959459 L47.3294595,64.5135135 C47.3294595,67.5121622 49.7709459,69.9527027 52.7719595,69.9527027 L64.4756757,69.9527027 C67.4766892,69.9527027 69.9181757,67.5121622 69.9181757,64.5135135 L69.9181757,29.2959459 C69.9181757,28.8277027 69.7100676,28.3878378 69.3506081,28.0851351 L69.3506081,28.0851351 Z" id="Fill-102"></path>
                <path d="M41.6712838,48.9337838 C36.7816892,49.6810811 31.6092568,49.5722973 26.7882432,48.6168919 C26.2722297,48.5128378 25.7401351,48.6783784 25.3688514,49.0472973 L16.4353378,57.9817568 L16.4353378,45.9114865 C16.4353378,45.3439189 16.1316892,44.8236486 15.6402703,44.5398649 C7.91,40.1412162 3.47682432,33.5527027 3.47682432,26.4722973 C3.47682432,13.8108108 17.6735811,3.51418919 35.1239189,3.51418919 C48.9205405,3.51418919 61.0319595,9.9277027 65.2622297,19.4722973 C65.6145946,20.2668919 66.5435135,20.6263514 67.3385811,20.2763514 C68.1331757,19.9216216 68.4916892,18.9945946 68.1397973,18.2 C63.4133784,7.53445946 50.1450676,0.364189189 35.1239189,0.364189189 C15.9382432,0.364189189 0.329662162,12.075 0.329662162,26.4722973 C0.329662162,34.4655405 5.03858108,41.8344595 13.2881757,46.8101351 L13.2881757,61.7797297 C13.2881757,62.4182432 13.6712838,62.9905405 14.2596622,63.2364865 C14.4540541,63.3168919 14.6588514,63.3547297 14.8612838,63.3547297 C15.2708784,63.3547297 15.6733784,63.1939189 15.9746622,62.8912162 L27.0067568,51.8614865 C31.9403378,52.7412162 37.1785135,52.8074324 42.1480405,52.0412162 C43.0069595,51.9135135 43.5967568,51.1094595 43.4647973,50.2486486 C43.3333108,49.3925676 42.5302027,48.8013514 41.6712838,48.9337838" id="Fill-103"></path>
            </g>
        </g>
    </g>
</svg>