<?xml version="1.0" encoding="UTF-8"?>
<svg width="24px" height="20px" viewBox="0 0 24 20" version="1.1" xmlns="http://www.w3.org/2000/svg" xmlns:xlink="http://www.w3.org/1999/xlink">
    <!-- Generator: Sketch 45.2 (43514) - http://www.bohemiancoding.com/sketch -->
    <title>twitter-logo-silhouette</title>
    <desc>Created with Sketch.</desc>
    <defs></defs>
    <g id="Page-1" stroke="none" stroke-width="1" fill="none" fill-rule="evenodd">
        <g id="Homepage" transform="translate(-1247.000000, -5417.000000)" fill-rule="nonzero" fill="#FFFFFF">
            <g id="Footer" transform="translate(0.000000, 5306.000000)">
                <g id="twitter-logo-silhouette" transform="translate(1247.000000, 111.000000)">
                    <path d="M24,2.32384314 C23.1166667,2.7152549 22.1688627,2.98070588 21.1730196,3.09921569 C22.1898431,2.49031373 22.9681961,1.5245098 23.337098,0.377215686 C22.3832941,0.941098039 21.3304706,1.35054902 20.2086667,1.5725098 C19.3103529,0.614196078 18.0325882,0.0172941176 16.6153333,0.0172941176 C13.8963529,0.0172941176 11.6917647,2.22188235 11.6917647,4.93937255 C11.6917647,5.32478431 11.7352549,5.70121569 11.8192549,6.06117647 C7.72803922,5.85568627 4.10023529,3.89556863 1.67219608,0.917098039 C1.24776471,1.64298039 1.00631373,2.48878431 1.00631373,3.39164706 C1.00631373,5.09984314 1.87615686,6.60705882 3.19592157,7.48886275 C2.38905882,7.46188235 1.63019608,7.23992157 0.965843137,6.87098039 L0.965843137,6.93247059 C0.965843137,9.31701961 2.66352941,11.3071373 4.91458824,11.7600784 C4.50215686,11.8710588 4.0672549,11.932549 3.61733333,11.932549 C3.29941176,11.932549 2.99196078,11.9010588 2.6905098,11.8410588 C3.31737255,13.7981961 5.13505882,15.2214118 7.28866667,15.2604314 C5.60447059,16.5801961 3.48086275,17.364549 1.17431373,17.364549 C0.776901961,17.364549 0.38545098,17.340549 3.92156862e-05,17.2970588 C2.17913725,18.6963137 4.76615686,19.5121569 7.54662745,19.5121569 C16.6034118,19.5121569 21.554,12.010549 21.554,5.50478431 L21.5374902,4.86741176 C22.5047843,4.1774902 23.3416078,3.31066667 24,2.32384314 Z" id="Shape"></path>
                </g>
            </g>
        </g>
    </g>
</svg>