<?xml version="1.0" encoding="UTF-8"?>
<svg width="20px" height="20px" viewBox="0 0 20 20" version="1.1" xmlns="http://www.w3.org/2000/svg" xmlns:xlink="http://www.w3.org/1999/xlink">
    <!-- Generator: Sketch 45.2 (43514) - http://www.bohemiancoding.com/sketch -->
    <title>Fill 1</title>
    <desc>Created with Sketch.</desc>
    <defs></defs>
    <g id="Page-1" stroke="none" stroke-width="1" fill="none" fill-rule="evenodd">
        <g id="Homepage" transform="translate(-1170.000000, -5416.000000)" fill="#FFFFFF">
            <g id="Footer" transform="translate(0.000000, 5306.000000)">
                <path d="M1188.8887,110.00003 L1171.10338,110.00003 C1170.49394,110.00003 1170.00001,110.493963 1170.00001,111.103401 L1170.00001,128.888719 C1170.00001,129.498082 1170.49394,129.992165 1171.10338,129.992165 L1180.67843,129.992165 L1180.67843,122.250142 L1178.07304,122.250142 L1178.07304,119.232914 L1180.67843,119.232914 L1180.67843,117.00782 C1180.67843,114.425648 1182.25551,113.019581 1184.55903,113.019581 C1185.66248,113.019581 1186.61079,113.101678 1186.88712,113.138382 L1186.88712,115.836959 L1185.28952,115.837708 C1184.03679,115.837708 1183.79416,116.432989 1183.79416,117.306547 L1183.79416,119.232914 L1186.78196,119.232914 L1186.39297,122.250142 L1183.79416,122.250142 L1183.79416,129.992165 L1188.8887,129.992165 C1189.49806,129.992165 1189.99207,129.498082 1189.99207,128.888719 L1189.99207,111.103401 C1189.99207,110.493963 1189.49806,110.00003 1188.8887,110.00003" id="Fill-1"></path>
            </g>
        </g>
    </g>
</svg>